<?xml version="1.0" encoding="UTF-8"?>
<svg version="1.1" xmlns="http://www.w3.org/2000/svg" width="432" height="433">
<path d="M0 0 C0.5986084 0.31936523 1.1972168 0.63873047 1.81396484 0.96777344 C14.4412368 7.74774775 25.83114223 15.98416739 36.79296875 25.1875 C39.06835233 27.11735064 39.06835233 27.11735064 42 29 C42 29.66 42 30.32 42 31 C42.54269531 31.21785156 43.08539063 31.43570313 43.64453125 31.66015625 C46.79698124 33.4533409 49.16761032 35.87049076 51.6875 38.4375 C52.21931885 38.97681152 52.7511377 39.51612305 53.29907227 40.07177734 C58.21552293 45.12062528 62.72254773 50.39625977 67 56 C67.49113281 56.64179199 67.98226563 57.28358398 68.48828125 57.94482422 C76.71666729 68.77836532 83.78886991 79.89984064 90 92 C90.31630371 92.60279785 90.63260742 93.2055957 90.95849609 93.82666016 C101.38463712 113.86732644 107.43895633 135.79282633 111 158 C111.19480957 159.14879639 111.19480957 159.14879639 111.39355469 160.32080078 C119.99856093 212.66189617 106.34200559 269.85041992 75.83544922 313.01660156 C74.57795417 314.76651972 73.3092116 316.50717532 72.03125 318.2421875 C70.64179793 320.12863589 69.29961706 322.05057442 68 324 C67.34 324 66.68 324 66 324 C65.60603027 325.11955078 65.60603027 325.11955078 65.20410156 326.26171875 C63.99258125 329.01687119 62.78887187 330.64265894 60.734375 332.8125 C60.09113281 333.49570312 59.44789063 334.17890625 58.78515625 334.8828125 C58.11355469 335.58148438 57.44195312 336.28015625 56.75 337 C55.76580078 338.04800781 55.76580078 338.04800781 54.76171875 339.1171875 C51.03282649 343.04623899 47.2082408 346.59420395 43 350 C42.113125 350.9075 41.22625 351.815 40.3125 352.75 C38 355 38 355 35 356 C35 356.66 35 357.32 35 358 C32.64349982 359.96627101 30.28127475 361.80872303 27.8125 363.625 C26.72026123 364.43469238 26.72026123 364.43469238 25.60595703 365.26074219 C19.27845145 369.89750289 12.77820268 374.04604844 6 378 C4.9275 378.65484375 3.855 379.3096875 2.75 379.984375 C-15.76570721 391.04236681 -36.25801445 397.77530328 -57 403.3125 C-58.41490723 403.69462646 -58.41490723 403.69462646 -59.85839844 404.08447266 C-61.22786621 404.43904541 -61.22786621 404.43904541 -62.625 404.80078125 C-63.42164063 405.00872314 -64.21828125 405.21666504 -65.0390625 405.4309082 C-73.11367415 406.9828475 -81.22223521 407.15882715 -89.421875 407.16796875 C-90.48432434 407.17129715 -91.54677368 407.17462555 -92.64141846 407.17805481 C-94.87682669 407.18308822 -97.11224235 407.18546425 -99.34765625 407.18530273 C-102.7266915 407.18748495 -106.10539749 407.20566781 -109.484375 407.22460938 C-125.74699769 407.26986004 -140.26755609 405.83824372 -156 401.4375 C-157.25385498 401.08816406 -158.50770996 400.73882812 -159.79956055 400.37890625 C-171.2535801 397.09071281 -182.16810949 392.94828551 -193 388 C-193.72960937 387.67032227 -194.45921875 387.34064453 -195.2109375 387.00097656 C-214.90380868 377.98727855 -232.54053612 365.31232914 -248.2890625 350.5234375 C-250.54255176 348.42580917 -252.83340164 346.4194089 -255.1875 344.4375 C-269.06385538 332.29214192 -281.09599831 316.08209926 -290 300 C-290.41846191 299.25443848 -290.83692383 298.50887695 -291.26806641 297.74072266 C-305.51733495 272.15876164 -314.45219237 245.09853232 -318 216 C-318.0942627 215.2462207 -318.18852539 214.49244141 -318.28564453 213.71582031 C-324.39426648 159.84192724 -308.73751715 102.79406138 -275.75 59.8125 C-272.02542854 55.14018507 -268.12579754 50.65269681 -264.07421875 46.26171875 C-262.19878414 44.21675333 -260.40967467 42.12380525 -258.625 40 C-251.39003567 31.71237342 -242.73341929 24.64801526 -234 18 C-232.97519531 17.21882813 -231.95039063 16.43765625 -230.89453125 15.6328125 C-221.76661136 8.82366792 -212.1040773 3.23059303 -202 -2 C-201.23526367 -2.39606445 -200.47052734 -2.79212891 -199.68261719 -3.20019531 C-176.11548239 -15.2372262 -150.3834615 -22.69542053 -124 -25 C-123.32646484 -25.06171387 -122.65292969 -25.12342773 -121.95898438 -25.18701172 C-79.73178676 -28.88925672 -37.25278299 -20.13932076 0 0 Z " fill="#5997CD" transform="translate(319,26)"/>
<path d="M0 0 C10.89719499 7.14297843 16.95194034 15.88999343 20.79978943 28.25958252 C21.38823708 31.17770848 21.36929576 33.93557382 21.36352539 36.91308594 C21.36344986 38.21413269 21.36337433 39.51517944 21.36329651 40.85565186 C21.35819024 42.27095579 21.35297425 43.68625934 21.34765625 45.1015625 C21.34579035 46.55316113 21.34436726 48.00476038 21.34336853 49.45635986 C21.33955688 53.27038319 21.32973815 57.08436823 21.31866455 60.89837646 C21.30842135 64.79292279 21.30386468 68.68747533 21.29882812 72.58203125 C21.28811465 80.21876743 21.27105449 87.85547209 21.25 95.4921875 C22.02292892 95.48330505 22.79585785 95.47442261 23.59220886 95.465271 C30.93148015 95.38460819 38.27053185 95.32396367 45.61013317 95.28493881 C49.38212927 95.26420016 53.15375442 95.23613953 56.92553711 95.19042969 C60.57604345 95.14647423 64.22619653 95.1229477 67.8769474 95.11267853 C69.25901146 95.10537503 70.64105958 95.0911175 72.0229702 95.06926727 C87.71748235 94.831331 99.80714942 98.54015169 111.4375 109.1171875 C120.10070297 118.12622691 123.73500587 129.83115132 123.49609375 142.0859375 C122.79224825 151.82805295 119.81583115 159.52260407 114.25 167.4921875 C113.1671875 169.07 113.1671875 169.07 112.0625 170.6796875 C102.93415761 179.80802989 92.69670991 183.79311048 79.9577837 183.8402729 C77.80370066 183.8318464 75.65005928 183.80877409 73.49609375 183.78515625 C71.9843844 183.77955078 70.47266954 183.77528518 68.96095276 183.77229309 C65.01041223 183.76091905 61.06021033 183.73151751 57.10980225 183.69818115 C53.0673887 183.66731837 49.02491965 183.65375336 44.98242188 183.63867188 C37.07146037 183.60663935 29.16077248 183.55553497 21.25 183.4921875 C21.25999275 184.67703484 21.25999275 184.67703484 21.27018738 185.88581848 C21.33059329 193.37289081 21.37612294 200.859843 21.40543652 208.34709644 C21.42101414 212.19529021 21.44210547 216.04328064 21.47631836 219.89135742 C21.50919704 223.61316073 21.52691225 227.33476991 21.53463173 231.05670738 C21.54012461 232.46830992 21.55084903 233.87990325 21.56719017 235.29142189 C21.7311059 250.05310662 19.08904961 262.66328549 8.98046875 273.86328125 C3.83660168 278.70525093 -2.18389806 282.01441318 -8.75 284.4921875 C-9.65234375 284.83894531 -10.5546875 285.18570312 -11.484375 285.54296875 C-24.16491853 289.22882052 -35.65607176 285.77720834 -46.9375 279.8046875 C-57.15995131 271.39956087 -63.4854644 263.39389532 -66.75 250.4921875 C-66.99050903 247.10682678 -66.99050903 247.10682678 -66.97705078 243.54711914 C-66.97734283 242.89260773 -66.97763489 242.23809631 -66.97793579 241.56375122 C-66.97655594 239.42647474 -66.96105936 237.2895584 -66.9453125 235.15234375 C-66.94157757 233.66019379 -66.93873286 232.16804136 -66.93673706 230.67588806 C-66.92913839 226.76814887 -66.90952274 222.86056078 -66.8873291 218.95288086 C-66.86678907 214.95754032 -66.85771798 210.96217512 -66.84765625 206.96679688 C-66.82627289 199.14185856 -66.79218303 191.31704428 -66.75 183.4921875 C-67.57748245 183.50106995 -68.4049649 183.50995239 -69.25752258 183.519104 C-77.0977431 183.59961819 -84.93782257 183.66033765 -92.77836323 183.69943619 C-96.80823373 183.72021373 -100.83775948 183.74834847 -104.86743164 183.79394531 C-108.76431297 183.83775812 -112.66086502 183.86139833 -116.55797386 183.87169647 C-118.0365841 183.87902491 -119.51517856 183.89333372 -120.99364662 183.91510773 C-136.12506294 184.12886852 -145.81707758 180.74666012 -156.91015625 170.49609375 C-165.28952521 161.96010107 -168.69448622 150.78164165 -169.125 138.9921875 C-169.01883474 128.32257856 -164.92015256 118.33509511 -157.75 110.4921875 C-156.98236328 109.58919922 -156.98236328 109.58919922 -156.19921875 108.66796875 C-148.64957193 100.36155543 -138.6283183 95.91013163 -127.47302246 95.31834412 C-123.60470569 95.261483 -119.73943658 95.26676867 -115.87109375 95.296875 C-114.44906311 95.3006126 -113.02702988 95.30345604 -111.60499573 95.30545044 C-107.89127287 95.31302819 -104.17771046 95.33262511 -100.46405029 95.3548584 C-96.66290455 95.37544424 -92.86173248 95.38447919 -89.06054688 95.39453125 C-81.62362537 95.41587755 -74.1868353 95.44994119 -66.75 95.4921875 C-66.75888245 94.70450989 -66.76776489 93.91683228 -66.7769165 93.10528564 C-66.85751264 85.63325687 -66.91819073 78.16144283 -66.95724869 70.68909073 C-66.9780048 66.84868879 -67.00609877 63.00865003 -67.05175781 59.16845703 C-67.09564916 55.45311737 -67.11922681 51.73812404 -67.12950897 48.02254486 C-67.13682366 46.6145356 -67.15110434 45.20654241 -67.17292023 43.79868317 C-67.38684287 29.40331266 -64.39524165 18.37657478 -54.75 7.4921875 C-40.15501039 -7.35618735 -18.15800539 -9.95595182 0 0 Z " fill="#FDFEFE" transform="translate(238.75,80.5078125)"/>
<path d="M0 0 C1.32405894 3.97217681 0.15472193 6.01544592 -1 10 C-1.32024435 13.32930285 -1.32024435 13.32930285 -1.31884766 16.76147461 C-1.33871735 18.06229477 -1.35858704 19.36311493 -1.37905884 20.70335388 C-1.39093169 22.10301545 -1.40259475 23.50267881 -1.4140625 24.90234375 C-1.43279492 26.34966612 -1.45236985 27.79697781 -1.4727478 29.24427795 C-1.52385626 33.03351515 -1.5635951 36.82278766 -1.60089111 40.61218262 C-1.64106506 44.48698512 -1.69209598 48.36164339 -1.7421875 52.23632812 C-1.83869436 59.82411943 -1.92317892 67.41198113 -2 75 C-2.77737015 75.00586624 -3.5547403 75.01173248 -4.35566711 75.01777649 C-11.72523802 75.07597244 -19.09448114 75.14819987 -26.46375751 75.23571491 C-30.2512882 75.28021218 -34.03871641 75.31951194 -37.82641602 75.34643555 C-41.49006074 75.37267692 -45.15330667 75.41322125 -48.81670189 75.46318626 C-50.20589376 75.47971563 -51.59515438 75.49131578 -52.98443031 75.49761391 C-67.98465787 75.5724157 -79.96717799 78.32701635 -91.25 88.625 C-99.56107691 97.39032605 -103.48786917 108.90808104 -103.25 120.81640625 C-102.30783131 132.81433562 -98.12345325 143.90167754 -89.2421875 152.1796875 C-81.2504492 158.66775379 -73.36864646 162.20258496 -62.96313477 162.31884766 C-62.29886978 162.32889328 -61.6346048 162.3389389 -60.95021057 162.34928894 C-58.78061699 162.37988569 -56.61114541 162.39708957 -54.44140625 162.4140625 C-52.9268236 162.43279316 -51.41225118 162.45236796 -49.89768982 162.4727478 C-45.93089858 162.52387481 -41.96407359 162.56360388 -37.99713135 162.60089111 C-33.94136334 162.64105327 -29.88573342 162.69208963 -25.83007812 162.7421875 C-17.8868134 162.8387164 -9.94347981 162.92319411 -2 163 C-1.99453156 164.22243156 -1.99453156 164.22243156 -1.98895264 165.46955872 C-1.95090774 173.19236966 -1.89387037 180.91470695 -1.81609726 188.6372118 C-1.77677765 192.60638264 -1.74451396 196.57533678 -1.72900391 200.54467773 C-1.7137339 204.38345835 -1.679109 208.22164259 -1.63169098 212.06015587 C-1.61698275 213.51633168 -1.60896512 214.9725927 -1.60811615 216.42884254 C-1.59085746 231.20403104 1.9831831 242.63763228 12 253.625 C20.93530431 262.3050099 31.72587506 265.26563314 43.78930664 265.24658203 C53.88174599 265.08002883 60.96994254 262.03414722 69 256 C70.051875 255.2575 71.10375 254.515 72.1875 253.75 C80.92060099 245.21096792 85.04185152 233.4923522 85.20532227 221.46557617 C85.22526749 220.16460495 85.24521271 218.86363373 85.26576233 217.52323914 C85.28274289 216.1131502 85.29962183 214.70306004 85.31640625 213.29296875 C85.33699375 211.84279308 85.35799068 210.39262318 85.37937927 208.94245911 C85.43441455 205.13673585 85.48390511 201.33096011 85.53222656 197.52514648 C85.59143952 192.95285589 85.65756486 188.38066063 85.72252655 183.80844879 C85.82030258 176.87235772 85.90931806 169.93620379 86 163 C106.79 163 127.58 163 149 163 C149 163.33 149 163.66 149 164 C129.53 164.33 110.06 164.66 90 165 C88.59820974 167.80358053 88.85196272 170.14602682 88.82641602 173.28222656 C88.8163855 174.24844185 88.8163855 174.24844185 88.80615234 175.23417664 C88.79209305 176.63483024 88.78020179 178.03550688 88.77020454 179.43619537 C88.75379247 181.65601395 88.73055228 183.87566332 88.70530701 186.09539795 C88.63455391 192.40742545 88.574545 198.71952378 88.52319336 205.03173828 C88.49130854 208.89208116 88.45000408 212.75223223 88.40299797 216.61241913 C88.38702857 218.08111858 88.37468374 219.54986222 88.36609077 221.01862335 C88.35386543 223.07934398 88.32968483 225.13961847 88.30297852 227.20019531 C88.29267105 228.37108704 88.28236359 229.54197876 88.27174377 230.74835205 C87.75046268 236.98592861 85.26570698 241.79527951 82 247 C81.34 247.33 80.68 247.66 80 248 C79.443125 249.546875 79.443125 249.546875 78.875 251.125 C76.89637069 255.97615715 73.38555826 259.22495748 69 262 C65.5 262.4375 65.5 262.4375 63 262 C62.67 262.99 62.34 263.98 62 265 C58.7 265.33 55.4 265.66 52 266 C52 266.66 52 267.32 52 268 C38.8657796 268.53067557 26.64058792 268.821684 16 260 C15.2575 259.814375 14.515 259.62875 13.75 259.4375 C13.1725 259.293125 12.595 259.14875 12 259 C11.505 257.515 11.505 257.515 11 256 C10.01 255.67 9.02 255.34 8 255 C5.8125 253.1875 5.8125 253.1875 4 251 C4 249.68 4 248.36 4 247 C3.34 247 2.68 247 2 247 C1.01 244.03 0.02 241.06 -1 238 C-1.66 238 -2.32 238 -3 238 C-9.1514642 215.73157394 -4.67618669 187.8753497 -4 165 C-5.21030128 165.00999275 -5.21030128 165.00999275 -6.4450531 165.02018738 C-14.07991034 165.08050576 -21.71465067 165.12607912 -29.34968472 165.15543652 C-33.2741615 165.17103726 -37.19844002 165.19217207 -41.12280273 165.22631836 C-44.91591887 165.259113 -48.7088453 165.27689498 -52.50209236 165.28463173 C-53.94325811 165.29013942 -55.38441445 165.30089388 -56.82549858 165.31719017 C-64.74586846 165.40312692 -71.61678042 165.0790187 -79 162 C-81.3222343 161.28692405 -83.6584177 160.6476717 -86 160 C-86 158.68 -86 157.36 -86 156 C-86.57234375 155.89429688 -87.1446875 155.78859375 -87.734375 155.6796875 C-90.35337827 154.89398652 -92.06089282 153.75466868 -94.25 152.125 C-94.95640625 151.61195313 -95.6628125 151.09890625 -96.390625 150.5703125 C-96.92171875 150.05210937 -97.4528125 149.53390625 -98 149 C-98 148.01 -98 147.02 -98 146 C-98.66 146 -99.32 146 -100 146 C-101.19245583 142.71712197 -102.34895062 139.42260093 -103.5 136.125 C-103.83386719 135.2071875 -104.16773437 134.289375 -104.51171875 133.34375 C-109.33223455 119.37409196 -106.17258838 106.73603956 -100.5 93.5 C-99 91 -99 91 -96 90 C-96 89.34 -96 88.68 -96 88 C-93.75 85.375 -93.75 85.375 -91 83 C-89.68 83 -88.36 83 -87 83 C-86.505 81.515 -86.505 81.515 -86 80 C-85.01 80 -84.02 80 -83 80 C-82.505 78.515 -82.505 78.515 -82 77 C-81.195625 76.87625 -80.39125 76.7525 -79.5625 76.625 C-78.2940625 76.315625 -78.2940625 76.315625 -77 76 C-76.67 75.34 -76.34 74.68 -76 74 C-67.66696324 71.67260909 -59.00722182 71.74188787 -50.4296875 71.83984375 C-49.18623566 71.84504532 -47.94278381 71.85024689 -46.66165161 71.85560608 C-42.73264286 71.87326534 -38.80390697 71.90445357 -34.875 71.9375 C-30.91043274 71.96621395 -26.94585916 71.98978491 -22.98123169 72.00868225 C-20.5239023 72.02094674 -18.06659269 72.03855743 -15.60934448 72.06199646 C-14.50704498 72.06852737 -13.40474548 72.07505829 -12.26904297 72.08178711 C-11.29707977 72.09004013 -10.32511658 72.09829315 -9.32369995 72.10679626 C-6.97447737 72.15627113 -6.97447737 72.15627113 -5 71 C-4.99120064 69.92790535 -4.99120064 69.92790535 -4.98222351 68.83415222 C-4.92398979 62.05323742 -4.85174133 55.2725962 -4.76428509 48.49199963 C-4.7198173 45.00714173 -4.68051171 41.52239442 -4.65356445 38.03735352 C-4.62224896 34.01810348 -4.56747262 29.99945467 -4.51171875 25.98046875 C-4.50532883 24.74668991 -4.4989389 23.51291107 -4.49235535 22.241745 C-4.18963741 4.18963741 -4.18963741 4.18963741 0 0 Z " fill="#6894B6" transform="translate(174,101)"/>
<path d="M0 0 C0.99 0.495 0.99 0.495 2 1 C2.65429688 3.12280273 2.65429688 3.12280273 3.21875 5.93359375 C3.42798096 6.96492432 3.63721191 7.99625488 3.8527832 9.05883789 C4.06636475 10.17379639 4.27994629 11.28875488 4.5 12.4375 C4.83100708 14.15731079 4.83100708 14.15731079 5.16870117 15.91186523 C15.55147182 71.13583083 6.42743571 130.01193354 -25.38769531 177.05175781 C-27.5373407 180.14814598 -29.73330516 183.20725747 -31.96875 186.2421875 C-33.35820207 188.12863589 -34.70038294 190.05057442 -36 192 C-36.66 192 -37.32 192 -38 192 C-38.26264648 192.74636719 -38.52529297 193.49273437 -38.79589844 194.26171875 C-40.00741875 197.01687119 -41.21112813 198.64265894 -43.265625 200.8125 C-43.90886719 201.49570312 -44.55210937 202.17890625 -45.21484375 202.8828125 C-45.88644531 203.58148438 -46.55804688 204.28015625 -47.25 205 C-48.23419922 206.04800781 -48.23419922 206.04800781 -49.23828125 207.1171875 C-52.96717351 211.04623899 -56.7917592 214.59420395 -61 218 C-62.3303125 219.36125 -62.3303125 219.36125 -63.6875 220.75 C-66 223 -66 223 -69 224 C-69 224.66 -69 225.32 -69 226 C-71.35650018 227.96627101 -73.71872525 229.80872303 -76.1875 231.625 C-76.91565918 232.16479492 -77.64381836 232.70458984 -78.39404297 233.26074219 C-84.72154855 237.89750289 -91.22179732 242.04604844 -98 246 C-99.0725 246.65484375 -100.145 247.3096875 -101.25 247.984375 C-119.76570721 259.04236681 -140.25801445 265.77530328 -161 271.3125 C-162.41490723 271.69462646 -162.41490723 271.69462646 -163.85839844 272.08447266 C-175.08323875 274.99072764 -186.05230044 275.16089578 -197.5859375 275.13037109 C-199.99485568 275.12501145 -202.40358747 275.13034337 -204.8125 275.13671875 C-212.61182272 275.13973706 -220.24900172 274.9845018 -228 274 C-227.67 273.01 -227.34 272.02 -227 271 C-226.47921875 271.15339844 -225.9584375 271.30679687 -225.421875 271.46484375 C-222.36721485 272.13982511 -219.36984029 272.34411118 -216.25 272.5625 C-215.07953125 272.64628906 -213.9090625 272.73007812 -212.703125 272.81640625 C-211.81109375 272.87699219 -210.9190625 272.93757813 -210 273 C-210 272.34 -210 271.68 -210 271 C-209.25540527 271.00523682 -208.51081055 271.01047363 -207.74365234 271.01586914 C-185.76440811 271.49880809 -185.76440811 271.49880809 -164 269 C-162.3337447 268.9629721 -160.66598681 268.95240038 -159 269 C-159 268.34 -159 267.68 -159 267 C-156.00590495 265.98160032 -153.00455575 264.9870736 -150 264 C-148.824375 263.608125 -147.64875 263.21625 -146.4375 262.8125 C-142.44313327 261.86837696 -139.0913832 261.85644269 -135 262 C-135 261.34 -135 260.68 -135 260 C-134.09636719 259.72285156 -133.19273437 259.44570313 -132.26171875 259.16015625 C-131.08222656 258.79792969 -129.90273438 258.43570312 -128.6875 258.0625 C-127.51574219 257.70285156 -126.34398437 257.34320313 -125.13671875 256.97265625 C-123.08446023 256.33627721 -121.03839863 255.67946621 -119 255 C-119 254.01 -119 253.02 -119 252 C-118.34 252 -117.68 252 -117 252 C-116.67 251.01 -116.34 250.02 -116 249 C-115.42894531 249.21011719 -114.85789062 249.42023438 -114.26953125 249.63671875 C-111.30276623 250.1116054 -110.23074783 249.3529041 -107.6875 247.8125 C-106.90632813 247.3484375 -106.12515625 246.884375 -105.3203125 246.40625 C-104.55460937 245.9421875 -103.78890625 245.478125 -103 245 C-101.68913662 244.26789517 -100.37681171 243.53839601 -99.0625 242.8125 C-96.01371239 241.17929596 -96.01371239 241.17929596 -94 239 C-91.03216698 237.25421587 -88.04332914 235.56796616 -85.01953125 233.921875 C-81.39563467 232.10591982 -81.39563467 232.10591982 -79 229 C-77.68 229 -76.36 229 -75 229 C-75 228.01 -75 227.02 -75 226 C-74.01 226 -73.02 226 -72 226 C-70.79371992 223.66785852 -69.8345262 221.50357861 -69 219 C-63.74285714 215 -63.74285714 215 -60 215 C-59.7525 214.2575 -59.505 213.515 -59.25 212.75 C-57.88861048 209.75494305 -56.3426579 208.27166827 -54 206 C-52.99431758 204.33675599 -51.99335201 202.67063747 -51 201 C-50.34 200.67 -49.68 200.34 -49 200 C-48.34 200.33 -47.68 200.66 -47 201 C-46.34 199.68 -45.68 198.36 -45 197 C-44.34 197 -43.68 197 -43 197 C-43 196.01 -43 195.02 -43 194 C-42.21625 193.236875 -41.4325 192.47375 -40.625 191.6875 C-37.82891158 188.82483805 -36.97842689 186.82475967 -36 183 C-34.35 182.67 -32.7 182.34 -31 182 C-30.9175 181.319375 -30.835 180.63875 -30.75 179.9375 C-29.77667472 176.1253093 -28.04192545 173.35929671 -26 170 C-25.34 170 -24.68 170 -24 170 C-24 169.34 -24 168.68 -24 168 C-23.34 168 -22.68 168 -22 168 C-21.690625 166.906875 -21.38125 165.81375 -21.0625 164.6875 C-20.41662103 162.44592006 -19.7376883 160.2130649 -19 158 C-18.01 158 -17.02 158 -16 158 C-15.855625 157.236875 -15.71125 156.47375 -15.5625 155.6875 C-15 153 -15 153 -14 150 C-13.34 150 -12.68 150 -12 150 C-11.8453125 148.515 -11.8453125 148.515 -11.6875 147 C-10.72440345 140.27188892 -7.65661696 134.1987729 -5 128 C-1.65545994 119.76344611 0.22073677 111.85899246 1 103 C1.33 103 1.66 103 2 103 C2.08564209 102.33468262 2.17128418 101.66936523 2.25952148 100.98388672 C2.6510393 97.94744268 3.04425454 94.91122075 3.4375 91.875 C3.63956055 90.30492187 3.63956055 90.30492187 3.84570312 88.703125 C4.92544016 80.38124931 4.92544016 80.38124931 5.5859375 77.00390625 C6.27034699 72.03870907 6.19080324 67.06837303 6.1875 62.0625 C6.18741943 60.9269165 6.18733887 59.79133301 6.18725586 58.62133789 C7.3148513 40.36280142 7.3148513 40.36280142 3 24 C2.70397826 22.56448966 2.4624076 21.11763324 2.24609375 19.66796875 C2.11396484 18.78689453 1.98183594 17.90582031 1.84570312 16.99804688 C1.71099609 16.07056641 1.57628906 15.14308594 1.4375 14.1875 C1.22963867 12.81368164 1.22963867 12.81368164 1.01757812 11.41210938 C0.44420053 7.53404318 0 3.93372031 0 0 Z " fill="#6996B8" transform="translate(423,158)"/>
<path d="M0 0 C0 0.99 0 1.98 0 3 C1.98 3 3.96 3 6 3 C6.495 4.485 6.495 4.485 7 6 C7.78375 6.103125 8.5675 6.20625 9.375 6.3125 C12 7 12 7 14 10 C15.4540625 10.6496875 15.4540625 10.6496875 16.9375 11.3125 C20.671228 13.36986032 21.52393093 15.06381581 23 19 C23 19.99 23 20.98 23 22 C23.66 22 24.32 22 25 22 C25.495 23.98 25.495 23.98 26 26 C26.66 26 27.32 26 28 26 C30.893586 34.68075799 30.19156737 44.70903831 30.31640625 53.76171875 C30.33718735 55.03352493 30.35796844 56.30533112 30.37937927 57.61567688 C30.43326231 60.95772287 30.48363429 64.29978243 30.53222656 67.64190674 C30.5829299 71.06795957 30.63835807 74.49393583 30.69335938 77.91992188 C30.79987258 84.61321981 30.9017487 91.30657595 31 98 C32.09088676 98.01213028 32.09088676 98.01213028 33.20381165 98.02450562 C40.10239412 98.1028791 47.00081114 98.19029365 53.8991518 98.28752708 C57.44452926 98.33718999 60.98988116 98.38351894 64.53540039 98.421875 C68.62403971 98.46625991 72.71234332 98.52578144 76.80078125 98.5859375 C78.05643387 98.59748871 79.31208649 98.60903992 80.60578918 98.62094116 C87.93424349 98.74224438 94.84011708 99.41209756 102 101 C102 101.66 102 102.32 102 103 C105.62197194 104.49140021 109.27566618 105.7874262 113 107 C113 107.99 113 108.98 113 110 C114.65 110.33 116.3 110.66 118 111 C118 111.99 118 112.98 118 114 C118.66 114 119.32 114 120 114 C124.89795918 118.08163265 124.89795918 118.08163265 125.3125 121.8125 C125.1578125 122.8953125 125.1578125 122.8953125 125 124 C125.99 124.33 126.98 124.66 128 125 C131.76259771 131.25048358 131.38284202 137.43469542 131.25 144.5625 C131.24484375 145.67302734 131.2396875 146.78355469 131.234375 147.92773438 C131.18505592 153.07849585 130.9380475 157.92392231 130 163 C129.34 163 128.68 163 128 163 C128 163.66 128 164.32 128 165 C127.34 164.67 126.68 164.34 126 164 C126.2165625 163.28457031 126.433125 162.56914062 126.65625 161.83203125 C130.35542975 148.59376298 130.29561822 136.78239561 123.64453125 124.49609375 C116.68183539 113.4640475 107.41861318 106.53750401 94.58250427 103.42762756 C88.85172413 102.47868836 83.01391168 102.63436743 77.21875 102.5859375 C75.79527701 102.56719868 74.37181482 102.54762331 72.94836426 102.5272522 C69.22654623 102.47621116 65.50469229 102.43643674 61.78271484 102.39910889 C57.97484664 102.3588921 54.16712415 102.30788097 50.359375 102.2578125 C42.90635045 102.16138574 35.4532546 102.07687617 28 102 C27.99453156 100.81848358 27.99453156 100.81848358 27.98895264 99.61309814 C27.95087311 92.1407655 27.89379776 84.6689205 27.81609726 77.19690323 C27.77681408 73.3566762 27.74453294 69.5166719 27.72900391 65.67626953 C27.71370935 61.96066935 27.67904289 58.24568229 27.63169098 54.53035736 C27.61700753 53.1224581 27.60896659 51.71447124 27.60811615 50.30649567 C27.59130566 36.41316991 24.88974292 24.41685937 15.1875 14.06640625 C5.12326051 4.63118173 -6.5077299 1.39981981 -20.05078125 1.62890625 C-30.97149646 2.65508622 -40.37665062 7.13205117 -48 15 C-50.01571084 17.56374396 -51.85970907 20.15714438 -53.625 22.8984375 C-55 25 -55 25 -57 27 C-56.67 25.02 -56.34 23.04 -56 21 C-55.34 21 -54.68 21 -54 21 C-53.95875 19.9275 -53.9175 18.855 -53.875 17.75 C-53 14 -53 14 -50.125 11.5625 C-47 10 -47 10 -44 10 C-44 9.01 -44 8.02 -44 7 C-43.38125 6.896875 -42.7625 6.79375 -42.125 6.6875 C-39.63473516 6.12474627 -39.63473516 6.12474627 -38 3 C-35.22028912 2.1082258 -32.59396144 1.40989501 -29.75 0.8125 C-28.94530273 0.63887939 -28.14060547 0.46525879 -27.31152344 0.28637695 C-18.09938289 -1.57008627 -9.27460966 -1.70774998 0 0 Z " fill="#6995B7" transform="translate(232,74)"/>
<path d="M0 0 C21.12 0 42.24 0 64 0 C64.02578125 4.70894531 64.0515625 9.41789062 64.078125 14.26953125 C64.10332502 17.27283903 64.12968193 20.27604924 64.16015625 23.27929688 C64.20829852 28.0344261 64.25241474 32.78932911 64.27099609 37.54467773 C64.2862661 41.38345835 64.320891 45.22164259 64.36830902 49.06015587 C64.38301725 50.51633168 64.39103488 51.9725927 64.39188385 53.42884254 C64.40914254 68.20403104 67.9831831 79.63763228 78 90.625 C86.93530431 99.3050099 97.72587506 102.26563314 109.78930664 102.24658203 C119.88174599 102.08002883 126.96994254 99.03414722 135 93 C136.051875 92.2575 137.10375 91.515 138.1875 90.75 C146.92060099 82.21096792 151.04185152 70.4923522 151.20532227 58.46557617 C151.22526749 57.16460495 151.24521271 55.86363373 151.26576233 54.52323914 C151.28274289 53.1131502 151.29962183 51.70306004 151.31640625 50.29296875 C151.33699375 48.84279308 151.35799068 47.39262318 151.37937927 45.94245911 C151.43441455 42.13673585 151.48390511 38.33096011 151.53222656 34.52514648 C151.59143952 29.95285589 151.65756486 25.38066063 151.72252655 20.80844879 C151.82030258 13.87235772 151.90931806 6.93620379 152 0 C172.79 0 193.58 0 215 0 C215 0.33 215 0.66 215 1 C195.53 1.33 176.06 1.66 156 2 C154.59820974 4.80358053 154.85196272 7.14602682 154.82641602 10.28222656 C154.8163855 11.24844185 154.8163855 11.24844185 154.80615234 12.23417664 C154.79209305 13.63483024 154.78020179 15.03550688 154.77020454 16.43619537 C154.75379247 18.65601395 154.73055228 20.87566332 154.70530701 23.09539795 C154.63455391 29.40742545 154.574545 35.71952378 154.52319336 42.03173828 C154.49130854 45.89208116 154.45000408 49.75223223 154.40299797 53.61241913 C154.38702857 55.08111858 154.37468374 56.54986222 154.36609077 58.01862335 C154.35386543 60.07934398 154.32968483 62.13961847 154.30297852 64.20019531 C154.29267105 65.37108704 154.28236359 66.54197876 154.27174377 67.74835205 C153.75046268 73.98592861 151.26570698 78.79527951 148 84 C147.01 84.495 147.01 84.495 146 85 C145.443125 86.546875 145.443125 86.546875 144.875 88.125 C142.89637069 92.97615715 139.38555826 96.22495748 135 99 C131.5 99.4375 131.5 99.4375 129 99 C128.67 99.99 128.34 100.98 128 102 C123.05 102.495 123.05 102.495 118 103 C118 103.66 118 104.32 118 105 C104.8657796 105.53067557 92.64058792 105.821684 82 97 C81.2575 96.814375 80.515 96.62875 79.75 96.4375 C79.1725 96.293125 78.595 96.14875 78 96 C77.67 95.01 77.34 94.02 77 93 C75.515 92.505 75.515 92.505 74 92 C71.8125 90.1875 71.8125 90.1875 70 88 C70 86.68 70 85.36 70 84 C69.34 84 68.68 84 68 84 C67.01 81.03 66.02 78.06 65 75 C64.34 75 63.68 75 63 75 C61.83742323 71.33954988 61.91640965 67.94180374 61.97827148 64.12011719 C61.98787903 63.43678314 61.99748657 62.7534491 62.00738525 62.04940796 C62.04027619 59.79845553 62.08064583 57.54770325 62.12109375 55.296875 C62.14540457 53.73318175 62.16924764 52.16948116 62.19264221 50.60577393 C62.2553875 46.49576442 62.32448106 42.38588526 62.39489746 38.27600098 C62.47811622 33.34177229 62.55344923 28.40741768 62.63010406 23.4730835 C62.74736195 15.98194181 62.87463518 8.49103017 63 1 C42.21 1 21.42 1 0 1 C0 0.67 0 0.34 0 0 Z " fill="#6998BC" transform="translate(108,264)"/>
<path d="M0 0 C-3 1 -3 1 -6 0 C-6 -0.66 -6 -1.32 -6 -2 C-6.845625 -2.268125 -7.69125 -2.53625 -8.5625 -2.8125 C-12.17859137 -4.0616952 -15.5632136 -5.31530078 -19 -7 C-19.33 -7.99 -19.66 -8.98 -20 -10 C-25.2268769 -13.49942525 -30.94586326 -16.28904831 -37 -18 C-43.19630264 -19.92385203 -49.14451021 -22.25486985 -55.10546875 -24.81640625 C-59.70904052 -26.69883843 -64.23554693 -28.15051737 -69.125 -29.0625 C-77.15 -30.575 -77.15 -30.575 -80 -32 C-87.14837328 -33.49021463 -94.32137119 -34.28575746 -101.6015625 -34.75390625 C-104 -35 -104 -35 -106 -36 C-108.91699274 -36.08698228 -111.80982548 -36.11551923 -114.7265625 -36.09765625 C-115.58937836 -36.0962413 -116.45219421 -36.09482635 -117.34115601 -36.09336853 C-120.1024723 -36.08776188 -122.86370812 -36.07520827 -125.625 -36.0625 C-127.4947905 -36.05748586 -129.36458226 -36.0529228 -131.234375 -36.04882812 C-135.82294777 -36.03779029 -140.41146023 -36.0205212 -145 -36 C-145 -35.67 -145 -35.34 -145 -35 C-146.01578125 -34.96261719 -147.0315625 -34.92523438 -148.078125 -34.88671875 C-155.52171602 -34.55494311 -162.43640821 -33.90676971 -169.64453125 -31.8984375 C-174.06563953 -30.7146716 -178.52307553 -29.75951738 -183 -28.8125 C-183.82604736 -28.63356201 -184.65209473 -28.45462402 -185.50317383 -28.27026367 C-186.28587646 -28.10502197 -187.0685791 -27.93978027 -187.875 -27.76953125 C-188.57367188 -27.62104736 -189.27234375 -27.47256348 -189.9921875 -27.31958008 C-192 -27 -192 -27 -196 -27 C-196 -26.34 -196 -25.68 -196 -25 C-212.36893204 -19 -212.36893204 -19 -216 -19 C-216 -18.34 -216 -17.68 -216 -17 C-217.41478135 -16.35004703 -218.83191487 -15.70521278 -220.25 -15.0625 C-221.03890625 -14.70285156 -221.8278125 -14.34320312 -222.640625 -13.97265625 C-224.75823698 -13.09966721 -226.76669362 -12.48661492 -229 -12 C-229 -11.34 -229 -10.68 -229 -10 C-229.969375 -9.649375 -230.93875 -9.29875 -231.9375 -8.9375 C-236.21683339 -7.13843331 -239.53393566 -4.37540288 -243.08203125 -1.42578125 C-245 0 -245 0 -247 0 C-247 0.66 -247 1.32 -247 2 C-248.11375 2.474375 -249.2275 2.94875 -250.375 3.4375 C-252.26710994 4.25306463 -254.15712709 5.07856355 -256 6 C-256.33 6.99 -256.66 7.98 -257 9 C-259.89558441 10.4477922 -261.74188938 11 -265 11 C-253.06942085 -0.18954939 -239.45766099 -8.5156807 -225 -16 C-224.23526367 -16.39606445 -223.47052734 -16.79212891 -222.68261719 -17.20019531 C-199.11548239 -29.2372262 -173.3834615 -36.69542053 -147 -39 C-146.32646484 -39.06171387 -145.65292969 -39.12342773 -144.95898438 -39.18701172 C-93.54711266 -43.69451768 -42.23209037 -29.49542819 0 0 Z " fill="#6C96B8" transform="translate(342,40)"/>
<path d="M0 0 C0.61328125 1.859375 0.61328125 1.859375 1 4 C0.401875 4.7425 -0.19625 5.485 -0.8125 6.25 C-3.22846748 9.28721627 -3.7122283 11.31211641 -4.5078125 15.00390625 C-5.62799707 19.54687701 -7.12030766 22.41353844 -11 25 C-12.20450304 27.55183404 -12.20450304 27.55183404 -13 30 C-13.66 30 -14.32 30 -15 30 C-15.12375 31.0725 -15.2475 32.145 -15.375 33.25 C-15.92036885 36.52221312 -16.49960731 38.1757314 -18 41 C-18.68939809 43.32671854 -19.35466922 45.66067594 -20 48 C-20.65572791 50.00361307 -21.31875294 52.00491933 -22 54 C-22.66 54 -23.32 54 -24 54 C-24.07347656 54.93972656 -24.07347656 54.93972656 -24.1484375 55.8984375 C-24.22320312 56.71570313 -24.29796875 57.53296875 -24.375 58.375 C-24.44460937 59.18710938 -24.51421875 59.99921875 -24.5859375 60.8359375 C-25 63 -25 63 -27 65 C-27.50042255 67.04143234 -27.90283779 69.10734109 -28.25390625 71.1796875 C-28.46853516 72.41847656 -28.68316406 73.65726562 -28.90429688 74.93359375 C-29.12150391 76.23425781 -29.33871094 77.53492188 -29.5625 78.875 C-30.0002401 81.43507765 -30.43899831 83.99498147 -30.87890625 86.5546875 C-31.16616577 88.26374268 -31.16616577 88.26374268 -31.45922852 90.00732422 C-31.76508333 91.69995101 -32.10178536 93.38954433 -32.53662109 95.05371094 C-33.13342273 97.5604036 -33.32912501 100.01762604 -33.53515625 102.5859375 C-33.62265137 103.67438965 -33.71014648 104.7628418 -33.80029297 105.88427734 C-34.22871576 111.58780538 -34.63143762 117.29228823 -35 123 C-35.0510791 123.74765625 -35.1021582 124.4953125 -35.15478516 125.265625 C-35.77640423 135.33849923 -33.66287487 144.70508899 -31.53466797 154.47949219 C-30.69214976 158.45125384 -29.96069252 162.44034779 -29.25 166.4375 C-29.12262451 167.12884033 -28.99524902 167.82018066 -28.86401367 168.5324707 C-28.23748424 172.06377851 -27.86177642 175.4130981 -28 179 C-28.66 179.33 -29.32 179.66 -30 180 C-44.24786082 116.05560062 -34.795679 55.68903553 0 0 Z " fill="#6A96B8" transform="translate(37,94)"/>
<path d="M0 0 C2.25 0 2.25 0 5 1 C6.18824909 2.93755543 7.05049405 4.92853327 7.95703125 7.01171875 C8.97172212 9.27357652 8.97172212 9.27357652 11.6875 11.125 C14 13 14 13 14.8125 16.25 C14.874375 17.1575 14.93625 18.065 15 19 C15.99 19.33 16.98 19.66 18 20 C18.61875 20.94875 19.2375 21.8975 19.875 22.875 C21.71211026 26.06265023 21.71211026 26.06265023 24.375 27.375 C27.69373536 29.42945522 29.27906279 31.98022872 31.5078125 35.1328125 C33.34619173 37.43319279 35.41768521 38.63289217 38 40 C38 40.66 38 41.32 38 42 C38.763125 42.04125 39.52625 42.0825 40.3125 42.125 C43 43 43 43 44.4375 45.8125 C44.953125 46.864375 45.46875 47.91625 46 49 C47.96374635 50.38617389 49.95912192 51.73012031 52 53 C52 53.66 52 54.32 52 55 C52.763125 55.28875 53.52625 55.5775 54.3125 55.875 C57 57 57 57 60 59 C60 59.66 60 60.32 60 61 C61.65 61.33 63.3 61.66 65 62 C65 62.66 65 63.32 65 64 C65.58394531 64.13019531 66.16789062 64.26039063 66.76953125 64.39453125 C72.26020538 65.88499445 76.96249198 68.9219653 81.5625 72.1875 C85.48043334 74.88788114 88.26952222 75.79870307 93 76 C93.33 76.99 93.66 77.98 94 79 C95.76832815 79.63143136 95.76832815 79.63143136 98 80 C99.03125 80.350625 100.0625 80.70125 101.125 81.0625 C103.81291118 82.1033402 103.81291118 82.1033402 106 82 C106 82.66 106 83.32 106 84 C107.32 84 108.64 84 110 84 C110 84.99 110 85.98 110 87 C110.67804688 87.02578125 111.35609375 87.0515625 112.0546875 87.078125 C118.20959586 87.45321637 123.17830483 88.53953692 128.80859375 91.0625 C130.86506068 91.94227195 132.81927746 92.52312218 135 93 C135 93.66 135 94.32 135 95 C119.07935606 93.02534649 104.47300431 86.61623054 90 80 C89.33339355 79.69835937 88.66678711 79.39671875 87.97998047 79.0859375 C68.95581064 70.3845272 51.90548833 57.79211002 36.7109375 43.5234375 C34.45744824 41.42580917 32.16659836 39.4194089 29.8125 37.4375 C22.13926845 30.72146093 15.90220542 22.74056452 9.625 14.75 C9.01769043 13.98131592 8.41038086 13.21263184 7.78466797 12.4206543 C4.68371448 8.42584554 2.0492494 4.62923964 0 0 Z " fill="#6A95B5" transform="translate(34,333)"/>
<path d="M0 0 C3.87483211 2.19104143 7.21233495 4.70921118 10.625 7.5625 C13.37117213 9.8534847 16.02318432 12.01545621 19 14 C19 14.66 19 15.32 19 16 C19.54269531 16.21785156 20.08539063 16.43570313 20.64453125 16.66015625 C23.79698124 18.4533409 26.16761032 20.87049076 28.6875 23.4375 C29.21931885 23.97681152 29.7511377 24.51612305 30.29907227 25.07177734 C35.21552293 30.12062528 39.72254773 35.39625977 44 41 C44.73669922 41.96268799 44.73669922 41.96268799 45.48828125 42.94482422 C74 80.48351962 74 80.48351962 74 94 C73.34 94 72.68 94 72 94 C71.67 93.01 71.34 92.02 71 91 C70.34 90.67 69.68 90.34 69 90 C68.25390625 87.890625 68.25390625 87.890625 67.5625 85.25 C66.24028328 80.59234212 64.86636571 76.79724105 61.3125 73.375 C60 72 60 72 60 69 C59.34 69 58.68 69 58 69 C57.6596875 67.6696875 57.6596875 67.6696875 57.3125 66.3125 C56.22453122 62.88810827 56.22453122 62.88810827 53.5625 60.6875 C50.20773945 57.16909259 49.23841598 53.62140596 48 49 C47.01 49.33 46.02 49.66 45 50 C44.505 47.03 44.505 47.03 44 44 C43.01 44 42.02 44 41 44 C39.35 41.03 37.7 38.06 36 35 C35.34 35 34.68 35 34 35 C33.443125 33.906875 32.88625 32.81375 32.3125 31.6875 C30.3609926 28.24650285 28.48333192 26.91583256 25 25 C23.65080468 23.34614767 22.31866272 21.678298 21 20 C18.5211097 17.70686634 16.0364882 15.5182441 13 14 C13 13.01 13 12.02 13 11 C12.2575 10.87625 11.515 10.7525 10.75 10.625 C8.19858515 10.04513299 6.2732427 9.26291261 4 8 C4 6.68 4 5.36 4 4 C2.68 3.34 1.36 2.68 0 2 C0 1.34 0 0.68 0 0 Z " fill="#6C97B7" transform="translate(342,41)"/>
<path d="M0 0 C21.12 0 42.24 0 64 0 C64.02578125 4.70894531 64.0515625 9.41789062 64.078125 14.26953125 C64.10332502 17.27283903 64.12968193 20.27604924 64.16015625 23.27929688 C64.20829852 28.0344261 64.25241474 32.78932911 64.27099609 37.54467773 C64.2862661 41.38345835 64.320891 45.22164259 64.36830902 49.06015587 C64.38301725 50.51633168 64.39103488 51.9725927 64.39188385 53.42884254 C64.40920791 68.25999629 67.99192165 79.72354536 78.125 90.6875 C82.81769631 95.26149404 87.90561017 97.73311481 94 100 C91.60996728 100.84291332 90.4145692 101.15384404 88 100.2578125 C87.01 99.69707031 87.01 99.69707031 86 99.125 C83.87100222 97.93575515 82.21091105 97.04293546 79.8125 96.5546875 C79.214375 96.37164062 78.61625 96.18859375 78 96 C77.67 95.01 77.34 94.02 77 93 C75.515 92.505 75.515 92.505 74 92 C71.8125 90.1875 71.8125 90.1875 70 88 C70 86.68 70 85.36 70 84 C69.34 84 68.68 84 68 84 C67.01 81.03 66.02 78.06 65 75 C64.34 75 63.68 75 63 75 C61.83742323 71.33954988 61.91640965 67.94180374 61.97827148 64.12011719 C61.98787903 63.43678314 61.99748657 62.7534491 62.00738525 62.04940796 C62.04027619 59.79845553 62.08064583 57.54770325 62.12109375 55.296875 C62.14540457 53.73318175 62.16924764 52.16948116 62.19264221 50.60577393 C62.2553875 46.49576442 62.32448106 42.38588526 62.39489746 38.27600098 C62.47811622 33.34177229 62.55344923 28.40741768 62.63010406 23.4730835 C62.74736195 15.98194181 62.87463518 8.49103017 63 1 C42.21 1 21.42 1 0 1 C0 0.67 0 0.34 0 0 Z " fill="#85A9C2" transform="translate(108,264)"/>
<path d="M0 0 C20.79 0 41.58 0 63 0 C63 0.33 63 0.66 63 1 C43.53 1.33 24.06 1.66 4 2 C2.70125755 4.59748491 2.84681516 6.53130306 2.81054688 9.44018555 C2.79382935 10.57864426 2.77711182 11.71710297 2.7598877 12.89006042 C2.74631226 14.12645767 2.73273682 15.36285492 2.71875 16.63671875 C2.70034058 17.90465775 2.68193115 19.17259674 2.66296387 20.47895813 C2.60406108 24.54842457 2.55119784 28.61793151 2.5 32.6875 C2.43253488 38.02482859 2.35845045 43.36201975 2.28125 48.69921875 C2.26767456 49.92549484 2.25409912 51.15177094 2.2401123 52.41520691 C2.158718 58.03487071 2.00068654 63.46431955 1 69 C0.67 69 0.34 69 0 69 C0 46.23 0 23.46 0 0 Z " fill="#84A8C2" transform="translate(260,264)"/>
<path d="M0 0 C1.49620608 4.48861824 -0.07263068 7.7981872 -2 12 C-4.70338141 15.25792119 -7.1354974 17.32538221 -11 19 C-11.99 19.66 -12.98 20.32 -14 21 C-15.98536627 21.70905938 -17.98910922 22.36694179 -20 23 C-20.57822006 23.24740433 -21.15644012 23.49480865 -21.75218201 23.74971008 C-29.16445514 26.72678413 -36.69056685 26.38030991 -44.53515625 26.29296875 C-46.02444529 26.28736306 -47.51373992 26.28309757 -49.0030365 26.28010559 C-52.89439573 26.26873325 -56.78541101 26.23933328 -60.67663574 26.20599365 C-64.65872548 26.17512711 -68.6408716 26.16156507 -72.62304688 26.14648438 C-80.4155202 26.11445488 -88.20771163 26.06335272 -96 26 C-96 25.67 -96 25.34 -96 25 C-95.247686 24.99413376 -94.49537201 24.98826752 -93.72026062 24.98222351 C-86.58614157 24.92401312 -79.45236055 24.8517779 -72.31854534 24.76428509 C-68.65208374 24.71979903 -64.98572769 24.68049704 -61.3190918 24.65356445 C-57.77214973 24.62731158 -54.22561879 24.58675981 -50.6789341 24.53681374 C-48.6857656 24.51232144 -46.69243732 24.50215756 -44.69914246 24.49235535 C-31.7705795 24.28605212 -17.52913043 21.52913043 -8 12 C-3.62845628 6.23718683 -3.62845628 6.23718683 0 0 Z " fill="#6590B2" transform="translate(357,240)"/>
<path d="M0 0 C1.87109375 0.53515625 1.87109375 0.53515625 4 2 C4.87085158 4.53045425 5.51739883 6.83910294 6.0625 9.4375 C7.0085389 13.80415115 7.69522583 16.85864873 11 20 C11.51171875 22.48046875 11.51171875 22.48046875 11.6875 25.1875 C11.78611328 26.53908203 11.78611328 26.53908203 11.88671875 27.91796875 C11.92410156 28.60503906 11.96148437 29.29210937 12 30 C12.99 30.33 13.98 30.66 15 31 C16.80266269 34.41557141 17.218934 37.16865501 17 41 C17.66 41 18.32 41 19 41 C20.20284401 43.07573081 21.38705701 45.15883095 22.5625 47.25 C23.07586914 48.12978516 23.07586914 48.12978516 23.59960938 49.02734375 C26.09168309 53.50804195 26.09168309 53.50804195 25.58959961 56.20214844 C25.39503174 56.79543945 25.20046387 57.38873047 25 58 C0 14.19877049 0 14.19877049 0 0 Z " fill="#6B96B7" transform="translate(8,275)"/>
<path d="M0 0 C0 0.99 0 1.98 0 3 C-0.61875 3.2475 -1.2375 3.495 -1.875 3.75 C-4.35068687 5.20628639 -4.95125002 6.37812506 -6 9 C-6.99 9 -7.98 9 -9 9 C-9.2475 9.78375 -9.495 10.5675 -9.75 11.375 C-11 14 -11 14 -12.9375 14.9375 C-15.29400582 15.89155941 -15.29400582 15.89155941 -16.375 18.8125 C-18.00594222 22.01165589 -19.58484244 23.43298553 -22.390625 25.5859375 C-24.87105219 27.76534197 -26.63250099 30.4049622 -28.55859375 33.0703125 C-31.5405889 37.0624686 -34.5096543 39.8969267 -39 42 C-33.12956725 32.67637152 -12.28001196 0 0 0 Z " fill="#6B97B9" transform="translate(77,52)"/>
<path d="M0 0 C-11.29971681 6.84978983 -33.10501381 3.07646886 -45.8125 3 C-50.31900772 2.973426 -54.82547503 2.95348394 -59.33203125 2.9375 C-60.36004349 2.92920166 -61.38805573 2.92090332 -62.44721985 2.91235352 C-63.39638779 2.90905029 -64.34555573 2.90574707 -65.32348633 2.90234375 C-66.15680984 2.89710693 -66.99013336 2.89187012 -67.84870911 2.88647461 C-70.18569171 2.91423327 -70.18569171 2.91423327 -73 4 C-73 9.61 -73 15.22 -73 21 C-73.33 21 -73.66 21 -74 21 C-74.05379226 18.04142591 -74.09357093 15.08382279 -74.125 12.125 C-74.14175781 11.28324219 -74.15851563 10.44148438 -74.17578125 9.57421875 C-74.18222656 8.76855469 -74.18867188 7.96289062 -74.1953125 7.1328125 C-74.21102295 6.01737061 -74.21102295 6.01737061 -74.22705078 4.87939453 C-74 3 -74 3 -72 1 C-69.3634491 0.72825623 -69.3634491 0.72825623 -65.97729492 0.69702148 C-64.71225632 0.68037949 -63.44721771 0.66373749 -62.1438446 0.64659119 C-60.75605305 0.63802682 -59.36826109 0.62952933 -57.98046875 0.62109375 C-56.5603979 0.60491926 -55.14033818 0.58773931 -53.72029114 0.56959534 C-49.97562829 0.52384297 -46.23095043 0.48908328 -42.48614502 0.45739746 C-36.50269397 0.40560369 -30.51940842 0.34015371 -24.53615761 0.26918221 C-22.44845121 0.24642601 -20.36076529 0.23010036 -18.272995 0.21446228 C-16.99849991 0.20097244 -15.72400482 0.1874826 -14.41088867 0.17358398 C-13.29107101 0.16407211 -12.17125336 0.15456024 -11.01750183 0.14476013 C-8.0309641 0.08195255 -8.0309641 0.08195255 -5.28681946 -0.573349 C-3 -1 -3 -1 0 0 Z " fill="#6396C4" transform="translate(336,265)"/>
<path d="M0 0 C0.52078125 0.15339844 1.0415625 0.30679687 1.578125 0.46484375 C4.63278515 1.13982511 7.63015971 1.34411118 10.75 1.5625 C11.92046875 1.64628906 13.0909375 1.73007812 14.296875 1.81640625 C15.18890625 1.87699219 16.0809375 1.93757813 17 2 C17 1.34 17 0.68 17 0 C30.53 0 44.06 0 58 0 C54.01820116 1.99089942 52.23875789 2.28709536 47.921875 2.4140625 C46.76171875 2.45273437 45.6015625 2.49140625 44.40625 2.53125 C42.59640625 2.57765625 42.59640625 2.57765625 40.75 2.625 C39.52796875 2.66367187 38.3059375 2.70234375 37.046875 2.7421875 C34.0314006 2.83642108 31.01593172 2.92203455 28 3 C28 3.33 28 3.66 28 4 C8.03189066 4.18451025 8.03189066 4.18451025 -1 3 C-0.67 2.01 -0.34 1.02 0 0 Z " fill="#5F91B8" transform="translate(196,429)"/>
<path d="M0 0 C1.28777344 0.01160156 2.57554687 0.02320313 3.90234375 0.03515625 C5.83787109 0.04869141 5.83787109 0.04869141 7.8125 0.0625 C8.81152344 0.07410156 9.81054688 0.08570313 10.83984375 0.09765625 C7.9514742 2.9860258 5.81428747 3.05939374 1.77728271 3.21791077 C0.57815247 3.21569016 -0.62097778 3.21346954 -1.85644531 3.21118164 C-2.85218567 3.21140068 -2.85218567 3.21140068 -3.86804199 3.21162415 C-6.05398875 3.21092957 -8.23984944 3.20315856 -10.42578125 3.1953125 C-11.94464064 3.1934467 -13.46350063 3.19202356 -14.98236084 3.19102478 C-18.97393464 3.18721235 -22.96547187 3.17739295 -26.95703125 3.1663208 C-31.03254705 3.15607928 -35.10806878 3.15152129 -39.18359375 3.14648438 C-47.175798 3.13576952 -55.16797257 3.11870841 -63.16015625 3.09765625 C-59.88344737 1.14633126 -57.46218671 0.85719805 -53.6730957 0.88647461 C-52.57548416 0.88985336 -51.47787262 0.89323212 -50.34700012 0.89671326 C-49.16772446 0.91017288 -47.98844879 0.92363251 -46.7734375 0.9375 C-44.95431099 0.94530235 -44.95431099 0.94530235 -43.09843445 0.95326233 C-39.22305369 0.97108759 -35.34793628 1.00227625 -31.47265625 1.03515625 C-27.58669053 1.06271969 -23.70076067 1.08741713 -19.81474304 1.1063385 C-17.3952857 1.11865354 -14.97584888 1.1363123 -12.55647278 1.15965271 C-11.46831772 1.16618362 -10.38016266 1.17271454 -9.2590332 1.17944336 C-8.29624954 1.18769638 -7.33346588 1.1959494 -6.34150696 1.20445251 C-3.35077358 1.05802986 -3.34343705 0.10332006 0 0 Z " fill="#EBFDFE" transform="translate(323.16015625,260.90234375)"/>
<path d="M0 0 C1.81964714 4.82950374 -0.37458496 8.35882671 -2.36328125 12.83203125 C-7.25722714 22.30456137 -13.76077225 27.87086989 -23 33 C-23.33 32.01 -23.66 31.02 -24 30 C-19.25 27 -19.25 27 -17 27 C-17 26.34 -17 25.68 -17 25 C-15.35 24.67 -13.7 24.34 -12 24 C-11.938125 23.46375 -11.87625 22.9275 -11.8125 22.375 C-10.84117625 19.53574596 -9.15824466 17.80462824 -7.203125 15.57421875 C-5.42663205 13.24978154 -4.77351037 10.79653747 -4 8 C-3.34588315 6.32836805 -2.68346682 4.65984798 -2 3 C-1.34 3 -0.68 3 0 3 C0 2.01 0 1.02 0 0 Z " fill="#E2F7FB" transform="translate(360,228)"/>
<path d="M0 0 C1.42203064 0.0037376 2.84406387 0.00658104 4.26609802 0.00857544 C7.97982088 0.01615319 11.69338329 0.03575011 15.40704346 0.0579834 C19.2081892 0.07856924 23.00936127 0.08760419 26.81054688 0.09765625 C34.24746838 0.11900255 41.68425845 0.15306619 49.12109375 0.1953125 C49.12109375 0.5253125 49.12109375 0.8553125 49.12109375 1.1953125 C48.44394821 1.20561996 47.76680267 1.21592743 47.06913757 1.22654724 C39.97919354 1.33528405 32.88935956 1.44982129 25.79956055 1.56762695 C23.1586336 1.61076193 20.5176826 1.6524507 17.87670898 1.69262695 C14.06616996 1.75085251 10.25574964 1.81439252 6.4453125 1.87890625 C5.277155 1.89561874 4.1089975 1.91233124 2.90544128 1.92955017 C-6.77228086 2.10184234 -16.28781866 2.92856508 -25.87890625 4.1953125 C-19.85804155 -1.8255522 -7.85952959 -0.06116871 0 0 Z " fill="#D8F0FD" transform="translate(122.87890625,175.8046875)"/>
<path d="M0 0 C3.96 0 7.92 0 12 0 C2.42458125 6.3836125 -11.68224335 6.06122154 -22.875 6.1875 C-23.61331055 6.20063232 -24.35162109 6.21376465 -25.11230469 6.22729492 C-29.22402069 6.23342196 -31.2215736 5.8892132 -35 4 C-23.78 3.67 -12.56 3.34 -1 3 C-0.67 2.01 -0.34 1.02 0 0 Z " fill="#769FC0" transform="translate(255,427)"/>
<path d="M0 0 C0.66 0 1.32 0 2 0 C2.495 1.485 2.495 1.485 3 3 C-19.11 3 -41.22 3 -64 3 C-64 2.67 -64 2.34 -64 2 C-63.21295181 1.98969254 -62.42590363 1.97938507 -61.61500549 1.96876526 C-54.21301893 1.87095812 -46.81111932 1.76846814 -39.40927219 1.66066074 C-35.60352595 1.60539706 -31.79777208 1.55197171 -27.99194336 1.50268555 C-24.32200665 1.45509259 -20.65216609 1.40275191 -16.98234367 1.34705925 C-15.57927773 1.32661263 -14.1761854 1.30790343 -12.7730732 1.29092598 C-10.81423074 1.26693313 -8.85547299 1.23629801 -6.89672852 1.20532227 C-5.77976089 1.18977798 -4.66279327 1.1742337 -3.51197815 1.15821838 C-1.06138999 1.28180962 -1.06138999 1.28180962 0 0 Z " fill="#EAFCFE" transform="translate(168,261)"/>
<path d="M0 0 C0.33 0 0.66 0 1 0 C1.67484534 6.01335398 2.11523756 12.0116666 2.25 18.0625 C2.27578125 19.14660156 2.3015625 20.23070312 2.328125 21.34765625 C2.21984375 22.22292969 2.1115625 23.09820312 2 24 C1.01 24.66 0.02 25.32 -1 26 C-0.67 17.42 -0.34 8.84 0 0 Z M-3 26 C-2.34 26.33 -1.68 26.66 -1 27 C-1.42257276 28.4835001 -1.86356322 29.96176424 -2.3125 31.4375 C-2.55613281 32.26121094 -2.79976563 33.08492187 -3.05078125 33.93359375 C-3.36402344 34.61550781 -3.67726563 35.29742187 -4 36 C-4.99 36.33 -5.98 36.66 -7 37 C-6.34 34.03 -5.68 31.06 -5 28 C-4.34 28 -3.68 28 -3 28 C-3 27.34 -3 26.68 -3 26 Z " fill="#5D93C1" transform="translate(363,211)"/>
<path d="M0 0 C0.66 0.33 1.32 0.66 2 1 C-1.515625 5.6875 -1.515625 5.6875 -3 7 C-4.32 7 -5.64 7 -7 7 C-7 7.99 -7 8.98 -7 10 C-12.2734375 13.22265625 -12.2734375 13.22265625 -14 14 C-14.66 13.67 -15.32 13.34 -16 13 C-6.5 2.91836735 -6.5 2.91836735 0 0 Z " fill="#E4F9FC" transform="translate(95,180)"/>
<path d="M0 0 C1.75029762 0.31082872 3.50022694 0.62373179 5.25 0.9375 C6.71179688 1.19853516 6.71179688 1.19853516 8.203125 1.46484375 C9.78883806 1.76825533 11.37138634 2.09876098 12.93164062 2.51367188 C16.32094568 3.31059063 19.78381289 3.37571783 23.25 3.5625 C23.99507812 3.60568359 24.74015625 3.64886719 25.5078125 3.69335938 C27.338349 3.79896725 29.16915176 3.89994201 31 4 C26.07232387 7.28511742 20.75974068 6.51856186 15 6 C3.38271605 3.38271605 3.38271605 3.38271605 0 0 Z " fill="#6292B6" transform="translate(193,363)"/>
<path d="M0 0 C3.375 -0.125 3.375 -0.125 7 0 C7.66 0.66 8.32 1.32 9 2 C11.58064129 2.14497985 14.04943884 2.18677545 16.625 2.125 C17.33140625 2.11597656 18.0378125 2.10695313 18.765625 2.09765625 C20.51056098 2.07407603 22.25532295 2.03820461 24 2 C24 2.33 24 2.66 24 3 C26.64 3.33 29.28 3.66 32 4 C32 4.33 32 4.66 32 5 C21.17095913 5.29623516 10.52315917 4.84895285 0 2 C0 1.34 0 0.68 0 0 Z " fill="#80A8C8" transform="translate(173,428)"/>
<path d="M0 0 C2.70482125 2.70482125 3.5076736 5.82543681 4.6875 9.375 C5.04424805 10.38433594 5.04424805 10.38433594 5.40820312 11.4140625 C7.46407193 17.53946634 7.46407193 17.53946634 6 21 C3.71056844 18.71056844 3.35896374 17.33106561 2.5 14.25 C1.66531049 11.29877637 0.79940683 8.44836878 -0.25 5.5625 C-1 3 -1 3 0 0 Z " fill="#6893B3" transform="translate(416,136)"/>
<path d="M0 0 C2.01822917 0.06510417 4.03645833 0.13020833 6.0546875 0.1953125 C6.0546875 0.8553125 6.0546875 1.5153125 6.0546875 2.1953125 C7.1375 2.5665625 7.1375 2.5665625 8.2421875 2.9453125 C11.30182016 4.30514924 13.5220613 6.02449004 16.0546875 8.1953125 C12.89607905 8.1953125 11.65068465 7.67018546 8.8671875 6.3203125 C4.64026623 4.36622759 0.59858026 3.18670728 -3.9453125 2.1953125 C-1.9453125 0.1953125 -1.9453125 0.1953125 0 0 Z " fill="#749CB9" transform="translate(327.9453125,174.8046875)"/>
<path d="M0 0 C0.33 0 0.66 0 1 0 C1.48529412 12.13235294 1.48529412 12.13235294 -2.625 16.875 C-3.305625 17.431875 -3.305625 17.431875 -4 18 C-5.2631363 14.41404928 -4.72375723 12.04721119 -3.6875 8.4375 C-3.42324219 7.48746094 -3.15898437 6.53742188 -2.88671875 5.55859375 C-2 3 -2 3 0 0 Z " fill="#6E9AC0" transform="translate(261,326)"/>
<path d="M0 0 C0.8971875 0.309375 0.8971875 0.309375 1.8125 0.625 C-17.58913934 9.625 -17.58913934 9.625 -21.1875 9.625 C-21.1875 8.965 -21.1875 8.305 -21.1875 7.625 C-20.1975 7.625 -19.2075 7.625 -18.1875 7.625 C-18.1875 6.965 -18.1875 6.305 -18.1875 5.625 C-16.83205078 5.22667969 -16.83205078 5.22667969 -15.44921875 4.8203125 C-14.26972656 4.46710938 -13.09023438 4.11390625 -11.875 3.75 C-10.70324219 3.40195312 -9.53148437 3.05390625 -8.32421875 2.6953125 C-0.2830025 -0.04851471 -0.2830025 -0.04851471 0 0 Z " fill="#7198B5" transform="translate(306.1875,412.375)"/>
<path d="M0 0 C0.56332031 0.31066406 1.12664062 0.62132812 1.70703125 0.94140625 C4.75650513 2.34925535 7.77966706 2.78446106 11.07421875 3.33984375 C11.70972656 3.55769531 12.34523438 3.77554687 13 4 C13.33 4.99 13.66 5.98 14 7 C14.99 7.33 15.98 7.66 17 8 C15.9790625 7.7834375 15.9790625 7.7834375 14.9375 7.5625 C11.93141797 6.93693606 11.93141797 6.93693606 8.5625 6.6875 C4.361461 5.87677318 2.36995456 4.54801442 -1 2 C-0.67 1.34 -0.34 0.68 0 0 Z " fill="#6191B7" transform="translate(114,405)"/>
<path d="M0 0 C0.33 0 0.66 0 1 0 C1.1875 2.875 1.1875 2.875 1 6 C0.01 6.66 -0.98 7.32 -2 8 C-2.33 8.99 -2.66 9.98 -3 11 C-3.66 11 -4.32 11 -5 11 C-5 11.66 -5 12.32 -5 13 C-7.5 14.625 -7.5 14.625 -10 16 C-8.56058464 12.96200316 -6.88346492 10.22031941 -5 7.4375 C-4.484375 6.67308594 -3.96875 5.90867187 -3.4375 5.12109375 C-2.963125 4.42113281 -2.48875 3.72117187 -2 3 C-1.34 2.01 -0.68 1.02 0 0 Z " fill="#6491B2" transform="translate(256,341)"/>
<path d="M0 0 C2.92846676 1.42731993 5.51417063 2.86928912 8 5 C8 5.66 8 6.32 8 7 C9.1446875 6.87625 9.1446875 6.87625 10.3125 6.75 C13 7 13 7 14.8125 9 C15.204375 9.66 15.59625 10.32 16 11 C15.67 11.66 15.34 12.32 15 13 C8.91132843 9.30620592 4.38748386 5.6249793 0 0 Z " fill="#E2F7FC" transform="translate(80,248)"/>
<path d="M0 0 C0 0.66 0 1.32 0 2 C-4.22102362 3.13673517 -7.52696509 2.79839993 -11.8125 2.0625 C-12.97394531 1.86785156 -14.13539063 1.67320313 -15.33203125 1.47265625 C-16.21246094 1.31667969 -17.09289062 1.16070312 -18 1 C-12.28300528 -2.21422148 -6.22366622 -1.24473324 0 0 Z " fill="#719CBC" transform="translate(232,74)"/>
<path d="M0 0 C3.96 0 7.92 0 12 0 C5.57067093 4.28621938 -3.34336868 5.53418358 -11 5 C-11 4.67 -11 4.34 -11 4 C-7.7 3.67 -4.4 3.34 -1 3 C-0.67 2.01 -0.34 1.02 0 0 Z " fill="#83ABC8" transform="translate(255,427)"/>
<path d="M0 0 C0 3.34419152 -0.47519394 4.06840321 -2.375 6.6875 C-3.03628906 7.62142578 -3.03628906 7.62142578 -3.7109375 8.57421875 C-4.13632813 9.04472656 -4.56171875 9.51523438 -5 10 C-5.66 10 -6.32 10 -7 10 C-7.2165625 10.928125 -7.2165625 10.928125 -7.4375 11.875 C-8 14 -8 14 -9 16 C-9.66 16 -10.32 16 -11 16 C-9.66534338 12.22959506 -7.99723337 9.42875097 -5.5 6.3125 C-4.8915625 5.54550781 -4.283125 4.77851562 -3.65625 3.98828125 C-2 2 -2 2 0 0 Z " fill="#DCF2F9" transform="translate(187,85)"/>
<path d="M0 0 C0.66 0 1.32 0 2 0 C1.67 1.65 1.34 3.3 1 5 C0.34 5 -0.32 5 -1 5 C-1.0825 6.11375 -1.165 7.2275 -1.25 8.375 C-2 12 -2 12 -4.0625 13.4375 C-5.0215625 13.7159375 -5.0215625 13.7159375 -6 14 C-4.50829734 9.0276578 -2.39542583 4.58154261 0 0 Z " fill="#6691B4" transform="translate(23,119)"/>
<path d="M0 0 C0.58300781 1.85205078 0.58300781 1.85205078 1 4 C-0.328125 6.3671875 -0.328125 6.3671875 -2.25 8.875 C-4.93384257 12.49631253 -7.16271045 15.89311747 -9 20 C-10 17 -10 17 -9.19555664 15.09887695 C-8.77137451 14.40238037 -8.34719238 13.70588379 -7.91015625 12.98828125 C-7.45576172 12.23095703 -7.00136719 11.47363281 -6.53320312 10.69335938 C-6.04787109 9.90767578 -5.56253906 9.12199219 -5.0625 8.3125 C-4.34030273 7.11657227 -4.34030273 7.11657227 -3.60351562 5.89648438 C-2.41134561 3.92527257 -1.2099739 1.96031588 0 0 Z " fill="#6F96B3" transform="translate(37,94)"/>
<path d="M0 0 C4.04161955 1.34484714 6.38678154 3.0505162 9.3125 6.125 C10.00988281 6.84945312 10.70726562 7.57390625 11.42578125 8.3203125 C11.94527344 8.87460938 12.46476562 9.42890625 13 10 C12.01 10.495 12.01 10.495 11 11 C8.4375 9.8125 8.4375 9.8125 6 8 C5.835 7.319375 5.67 6.63875 5.5 5.9375 C5.335 5.298125 5.17 4.65875 5 4 C2.50965614 2.70339566 2.50965614 2.70339566 0 2 C0 1.34 0 0.68 0 0 Z " fill="#E3F9FD" transform="translate(339,182)"/>
<path d="M0 0 C0.66 0.33 1.32 0.66 2 1 C1.54625 1.37125 1.0925 1.7425 0.625 2.125 C-1.22244119 3.98529973 -1.22244119 3.98529973 -1.8125 6.9375 C-3.34141731 10.88049726 -5.38921771 11.95912306 -9 14 C-8.731875 13.484375 -8.46375 12.96875 -8.1875 12.4375 C-6.8839753 9.84943081 -6.8839753 9.84943081 -5.625 6.4375 C-4.04888857 3.10341812 -3.11279845 1.82474392 0 0 Z " fill="#5D94C1" transform="translate(42,91)"/>
<path d="M0 0 C1.28840775 3.86522324 0.4223305 5.52380731 -1.03125 9.19140625 C-2 11 -2 11 -4.1875 12.5 C-4.785625 12.665 -5.38375 12.83 -6 13 C-6.33 12.01 -6.66 11.02 -7 10 C-5.8203125 8.02734375 -5.8203125 8.02734375 -4.125 5.9375 C-1.83839531 3.11251972 -1.83839531 3.11251972 0 0 Z " fill="#739BBD" transform="translate(357,240)"/>
<path d="M0 0 C3.68754757 0.49831724 5.60490662 1.10067643 8 4 C7.67 4.66 7.34 5.32 7 6 C4.625 5.8125 4.625 5.8125 2 5 C0.6875 2.4375 0.6875 2.4375 0 0 Z " fill="#E2F7FB" transform="translate(231,78)"/>
<path d="M0 0 C2.4375 1.0625 2.4375 1.0625 5 3 C5.8125 6.6875 5.8125 6.6875 6 10 C5.01 9.67 4.02 9.34 3 9 C2.05078125 6.93359375 2.05078125 6.93359375 1.3125 4.4375 C1.06113281 3.61121094 0.80976563 2.78492188 0.55078125 1.93359375 C0.36902344 1.29550781 0.18726562 0.65742188 0 0 Z " fill="#5E93C1" transform="translate(31,324)"/>
<path d="M0 0 C3.26008643 3.16952847 6.22237877 6.39937989 9 10 C8.01 10 7.02 10 6 10 C4.39453125 8.3203125 4.39453125 8.3203125 2.8125 6.125 C2.01779297 5.04605469 2.01779297 5.04605469 1.20703125 3.9453125 C0 2 0 2 0 0 Z " fill="#7A9BB8" transform="translate(76,244)"/>
<path d="M0 0 C0.99 0.33 1.98 0.66 3 1 C3 1.99 3 2.98 3 4 C4.65 4.33 6.3 4.66 8 5 C7.67 5.99 7.34 6.98 7 8 C3.83282717 6.41641358 2.26731682 5.54736301 0.6875 2.3125 C0.460625 1.549375 0.23375 0.78625 0 0 Z " fill="#6092B9" transform="translate(342,180)"/>
<path d="M0 0 C0.66 0.33 1.32 0.66 2 1 C-0.31 2.65 -2.62 4.3 -5 6 C-5.99 5.34 -6.98 4.68 -8 4 C-6.71349294 3.30289269 -5.42059335 2.61757124 -4.125 1.9375 C-3.40570313 1.55464844 -2.68640625 1.17179687 -1.9453125 0.77734375 C-1.30335938 0.52082031 -0.66140625 0.26429687 0 0 Z " fill="#DBF2FA" transform="translate(199,78)"/>
<path d="M0 0 C0.99 0.495 0.99 0.495 2 1 C2 1.66 2 2.32 2 3 C2.99 3.33 3.98 3.66 5 4 C5 4.66 5 5.32 5 6 C5.99 6 6.98 6 8 6 C8 6.66 8 7.32 8 8 C4.82461668 7.65978036 3.97723135 6.97533396 1.75 4.5625 C0 2 0 2 0 0 Z " fill="#5D93C0" transform="translate(52,353)"/>
<path d="M0 0 C0.66 0 1.32 0 2 0 C2.99 2.97 3.98 5.94 5 9 C4.01 8.67 3.02 8.34 2 8 C2 6.68 2 5.36 2 4 C1.34 4 0.68 4 0 4 C0 2.68 0 1.36 0 0 Z " fill="#5E91B9" transform="translate(176,344)"/>
<path d="M0 0 C2.3773161 2.3773161 2.67028521 3.70285207 3 7 C2.34 7.66 1.68 8.32 1 9 C-1.125 3.375 -1.125 3.375 0 0 Z " fill="#6F9BBC" transform="translate(416,136)"/>
<path d="M0 0 C5.875 3.75 5.875 3.75 7 6 C4.03 5.505 4.03 5.505 1 5 C0.67 3.35 0.34 1.7 0 0 Z " fill="#DBF4FB" transform="translate(240,82)"/>
<path d="M0 0 C2.64 0 5.28 0 8 0 C8 0.66 8 1.32 8 2 C8.99 2.33 9.98 2.66 11 3 C6.78121808 3.19622241 3.82989106 2.80230168 0 1 C0 0.67 0 0.34 0 0 Z " fill="#5D92B9" transform="translate(233,2)"/>
<path d="M0 0 C-1 3 -1 3 -4.0625 4.6875 C-5.031875 5.120625 -6.00125 5.55375 -7 6 C-7 5.01 -7 4.02 -7 3 C-2.77777778 0 -2.77777778 0 0 0 Z " fill="#E5F8FC" transform="translate(343,255)"/>
<path d="M0 0 C2.25 0.25 2.25 0.25 4 1 C1.6875 3.0625 1.6875 3.0625 -1 5 C-1.99 4.67 -2.98 4.34 -4 4 C-2.25 1.9375 -2.25 1.9375 0 0 Z " fill="#6491B6" transform="translate(344,387)"/>
<path d="M0 0 C0.6875 1.625 0.6875 1.625 1 4 C-0.4375 7.25 -0.4375 7.25 -2 10 C-2.33 10 -2.66 10 -3 10 C-2.25 3.375 -2.25 3.375 0 0 Z " fill="#6598C4" transform="translate(32,105)"/>
</svg>
